<svg xmlns="http://www.w3.org/2000/svg" width="30" height="30" viewBox="0 0 30 30">
    <g fill="none" fill-rule="evenodd">
        <g>
            <g>
                <g>
                    <g transform="translate(-349 -668) translate(325 605) translate(10 43) translate(14 20)">
                        <circle cx="15" cy="15" r="15" fill="#242E39"/>
                        <g fill-rule="nonzero">
                            <g>
                                <path fill="#F3B53B" d="M7.695 9.277c-.67.668-1.56 1.036-2.508 1.036-.946 0-1.837-.368-2.507-1.035-.67-.67-1.04-1.558-1.04-2.503 0-.944.37-1.832 1.04-2.5.67-.669 1.56-1.037 2.507-1.037.946 0 1.837.368 2.508 1.036.67.669 1.038 1.557 1.038 2.501 0 .945-.368 1.834-1.038 2.502zM5.187 1.6C2.327 1.6 0 3.923 0 6.775c0 2.854 2.328 5.175 5.187 5.176 2.86 0 5.187-2.322 5.187-5.176 0-2.852-2.327-5.174-5.187-5.174zM10.838 1.207L11.242 1.207 11.242.805 10.838.805zM10.838.404L11.242.404 11.242 0 10.838 0zM9.7 1.598L10.078 1.598 10.078 1.205 9.7 1.205z" transform="translate(4 6) translate(6)"/>
                                <path fill="#FFFFFE" d="M8.951 2.355L9.332 2.355 9.332 1.979 8.951 1.979zM10.078 1.978L10.501 1.978 10.501 1.599 10.078 1.599zM8.572 1.978L8.951 1.978 8.951 1.617 8.572 1.617zM9.7 2.355L10.078 2.355 10.078 1.979 9.7 1.979zM10.438.804L10.838.804 10.838.404 10.438.404zM9.7 1.205L10.438 1.205 10.438.804 9.7.804zM9.332 1.979L9.699 1.979 9.699 1.205 9.332 1.205zM9.332 2.735h-.381v-.38h-.632v.274h-.338v.337h.378v.376h-.378v-.376h-.402v.59h-.381v.377h-.252v.377H6.67c-.312.463-1.093 1.903-1.33 2.49-.85-1.18-1.51-1.65-2.03-1.819-.281-.084-.62.22-.153.7 1.07 1.175 1.408 2.148 1.733 2.924.172.409.944.472 1.1.056.328-.88.806-1.87 1.372-2.682v-.422h.302v-.379h.318v-.44h.38v-.424h-.385V3.93h.384v.385h.375v-.381h.3v-.461h.339v-.317H9.7v-.8h-.368v.38" transform="translate(4 6) translate(6)"/>
                            </g>
                            <g fill="#FFFFFE">
                                <path d="M7.157 1.614c-.013.064-.035.122-.067.173-.032.052-.076.094-.13.125-.055.03-.123.046-.202.046-.08 0-.147-.015-.2-.046-.053-.031-.097-.073-.129-.125-.031-.05-.054-.109-.067-.173-.013-.063-.02-.128-.02-.194s.007-.132.02-.196c.013-.065.036-.124.067-.174.033-.05.076-.092.129-.123.053-.033.12-.049.2-.049.08 0 .147.016.202.048.054.032.098.074.13.124s.054.109.067.174c.013.064.02.13.02.196s-.007.131-.02.194zm.21-.81c-.072-.072-.16-.13-.263-.17-.103-.04-.22-.06-.346-.06-.127 0-.243.02-.344.06-.102.04-.19.098-.262.17-.072.073-.13.163-.168.266-.04.104-.06.222-.06.35 0 .128.02.245.06.348.039.102.096.191.168.264.072.073.16.13.262.168.101.04.217.06.344.06.127 0 .243-.02.346-.06.102-.039.19-.095.263-.168.073-.073.13-.162.169-.264.04-.103.06-.22.06-.348 0-.128-.02-.246-.06-.35-.04-.103-.096-.193-.169-.266zM9.18.752c-.042-.055-.102-.099-.176-.13C8.929.59 8.83.574 8.713.574c-.093 0-.185.021-.273.063-.088.042-.182.109-.237.2l-.005.009c-.003.004-.006.006-.01.006S8.182.85 8.182.846V.618h-.396v1.6h.419v-.84c0-.169.029-.293.086-.368.058-.077.153-.116.281-.116.115 0 .196.036.241.107.044.07.067.174.067.311v.906h.418V1.23c0-.1-.009-.191-.027-.273-.017-.08-.048-.15-.09-.205M1.434 1.555L.451 0 0 0 0 2.222.415 2.222.415.661.448.712 1.395 2.222 1.85 2.222 1.85 0 1.435 0 1.434 1.555M3.274 1.614c-.013.064-.036.122-.068.173-.032.052-.076.094-.13.125-.055.03-.122.046-.202.046-.079 0-.146-.015-.2-.046-.053-.031-.096-.073-.128-.125-.032-.05-.055-.109-.068-.173-.013-.063-.02-.128-.02-.194s.007-.132.02-.196c.013-.065.036-.124.068-.174.032-.05.075-.092.128-.123.054-.033.121-.049.2-.049.08 0 .148.016.202.048.054.032.098.074.13.124s.055.109.068.174c.013.064.02.13.02.196s-.007.131-.02.194zm.21-.81C3.41.732 3.323.674 3.22.634c-.102-.04-.219-.06-.346-.06-.126 0-.242.02-.344.06-.101.04-.19.098-.262.17-.072.073-.129.163-.168.266-.04.104-.06.222-.06.35 0 .128.02.245.06.348.04.102.096.191.168.264.073.073.16.13.262.168.102.04.218.06.344.06.127 0 .244-.02.346-.06.103-.039.191-.095.264-.168.072-.073.129-.162.168-.264.04-.103.06-.22.06-.348 0-.128-.02-.246-.06-.35-.04-.103-.096-.193-.168-.266zM5.501.138L5.083.134l-.005.463H4.97s-.2-.007-.372.056c-.106.04-.195.108-.252.211-.011.02-.021.042-.03.065-.001.005-.005.008-.01.008S4.3.934 4.3.929V.626h-.396v1.6h.418v-.72c0-.074.007-.145.023-.209.01-.041.024-.08.042-.114.076-.121.24-.242.593-.245h.096l-.01.933c0 .079.013.143.038.191.026.048.061.085.106.111.045.027.1.046.16.055.06.01.127.015.196.016.043 0 .089 0 .136-.002.04-.001.078-.004.111-.009l.003-.313c-.015.003-.031.005-.048.006-.024.002-.05.003-.075.002-.082 0-.136-.015-.165-.044-.028-.03-.042-.083-.041-.164l.007-.782h.322v-.34h-.318L5.5.137M10.24.169L9.753.169 9.753 2.212 11.235 2.212 11.235 1.836 10.24 1.836 10.24.169M11.444 2.212L11.895 2.212 11.895.607 11.444.607zM11.444.385L11.895.385 11.895 0 11.444 0zM12.469.158c-.07.067-.096.172-.096.373v.076h-.248v.35h.248v1.255h.46V.957h.335V.61h-.338V.546c0-.08.006-.111.021-.129.018-.014.036-.02.096-.02h.22V.058h-.376c-.176 0-.254.032-.322.1M13.736 1.26c.003-.224.018-.274.038-.294.021-.023.07-.03.147-.03h.248c.092 0 .12.01.137.027.021.023.036.082.036.298h-.606zm.585-.653h-.556c-.167 0-.256.026-.325.096-.108.108-.15.234-.15.707 0 .472.042.598.15.703.072.073.158.1.325.1h.61c.176 0 .242-.045.293-.094.08-.079.107-.171.11-.41h-.42c-.004.113-.01.127-.025.144-.018.02-.042.03-.134.03h-.278c-.078 0-.126-.006-.147-.03-.018-.02-.035-.064-.038-.318h.977c.053 0 .065-.018.065-.064v-.076c0-.461-.024-.587-.131-.692-.069-.07-.158-.096-.326-.096zM15.278.169L15.042.169 15.042 2.212 16.342 2.212 16.342 2.014 15.278 2.014 15.278.169M17.568 1.976c-.034.032-.08.044-.198.044h-.383c-.117 0-.163-.012-.2-.044-.05-.047-.074-.123-.074-.546 0-.42.024-.496.074-.543.037-.035.083-.044.2-.044h.383c.118 0 .164.01.198.044.05.047.077.123.077.543 0 .423-.028.5-.077.546zM17.395.65h-.432c-.17 0-.266.02-.337.087-.105.1-.142.225-.142.692 0 .47.037.595.142.695.071.067.167.087.337.087h.432c.166 0 .265-.02.333-.087.108-.1.146-.225.146-.695 0-.467-.038-.592-.146-.692-.068-.067-.167-.087-.333-.087zM19.064 1.979c-.036.032-.075.04-.173.04h-.35c-.113 0-.158-.011-.194-.043-.048-.047-.072-.123-.072-.546 0-.42.024-.496.072-.543.036-.035.08-.044.194-.044h.35c.098 0 .134.01.167.041.033.032.051.08.06.277h.215c-.006-.26-.036-.358-.11-.431-.06-.059-.13-.08-.287-.08h-.419c-.164 0-.257.021-.325.088-.102.1-.138.225-.138.692 0 .47.036.596.138.695.068.067.161.087.325.087h.422c.152 0 .227-.023.284-.078.077-.076.107-.167.116-.45h-.215c-.006.198-.024.26-.06.295M20.826.651L20.56.651 19.971 1.334 19.807 1.334 19.807.111 19.586.111 19.586 2.212 19.807 2.212 19.807 1.515 19.965 1.515 20.572 2.212 20.85 2.212 20.144 1.413 20.826.651M21.363.581L21.311.774 21.256.581 21.171.581 21.171.846 21.225.846 21.225.644 21.283.846 21.334.846 21.392.644 21.392.846 21.448.846 21.448.581 21.363.581M20.918.625L20.99.625 20.99.846 21.046.846 21.046.625 21.117.625 21.117.581 20.918.581 20.918.625" transform="translate(4 6) translate(0 14)"/>
                            </g>
                        </g>
                    </g>
                </g>
            </g>
        </g>
    </g>
</svg>
