<svg xmlns="http://www.w3.org/2000/svg" xmlns:xlink="http://www.w3.org/1999/xlink" width="31" height="34" viewBox="0 0 31 34">
    <defs>
        <path id="prefix__a" d="M28.152 28.471L0 28.471 0 0.082 28.152 0.082 28.152 28.471z"/>
        <path id="prefix__c" d="M0 32.782L30.506 32.782 30.506 0 0 0z"/>
    </defs>
    <g fill="none" fill-rule="evenodd">
        <g transform="translate(0 4.31)">
            <mask id="prefix__b" fill="#fff">
                <use xlink:href="#prefix__a"/>
            </mask>
            <path fill="#FCC200" d="M14.076 4.572c-2.569 0-4.985 1.01-6.805 2.843-1.817 1.833-2.818 4.27-2.819 6.861 0 2.59 1.002 5.028 2.82 6.863 1.818 1.832 4.234 2.841 6.804 2.843 2.57-.002 4.986-1.011 6.806-2.844 1.815-1.834 2.816-4.271 2.817-6.862 0-2.59-1.002-5.028-2.818-6.863-1.82-1.831-4.237-2.841-6.805-2.841m0 23.9C6.316 28.472 0 22.102 0 14.276 0 6.45 6.316.082 14.076.082c7.76 0 14.075 6.367 14.076 14.194-.001 7.826-6.315 14.196-14.076 14.196" mask="url(#prefix__b)"/>
        </g>
        <mask id="prefix__d" fill="#fff">
            <use xlink:href="#prefix__c"/>
        </mask>
        <path fill="#FCC200" d="M29.409 3.312L30.506 3.312 30.506 2.206 29.409 2.206zM29.409 1.109L30.506 1.109 30.506 0 29.409 0zM26.321 4.386L27.346 4.386 27.346 3.305 26.321 3.305z" mask="url(#prefix__d)"/>
        <path fill="#1D1D1B" d="M24.29 6.461L25.323 6.461 25.323 5.427 24.29 5.427zM27.346 5.427L28.496 5.427 28.496 4.386 27.346 4.386zM23.26 5.427L24.289 5.427 24.289 4.437 23.26 4.437zM26.321 6.461L27.346 6.461 27.346 5.427 26.321 5.427zM28.323 2.206L29.409 2.206 29.409 1.109 28.323 1.109zM26.321 3.305L28.323 3.305 28.323 2.206 26.321 2.206zM25.323 5.427L26.321 5.427 26.321 3.305 25.323 3.305z" mask="url(#prefix__d)"/>
        <path fill="#1D1D1B" d="M25.323 6.46v1.042H24.29V6.46h-1.715v.75h-.92v.926h1.027v1.032h-1.026V8.136h-1.091v1.618h-1.032v1.033h-.684v1.037h-.753c-.845 1.268-2.965 5.22-3.605 6.83-2.308-3.24-4.102-4.525-5.513-4.99-.762-.23-1.68.605-.414 1.922 2.905 3.221 3.82 5.89 4.702 8.018.468 1.122 2.562 1.296 2.982.154.895-2.415 2.192-5.13 3.727-7.358v-1.155h.818v-1.041h.863v-1.207h1.029v-1.163h-1.04v-1.058h1.04v1.058h1.018l-.002-1.047h.817V9.523h.919v-.869h.884V6.46h-.998z" mask="url(#prefix__d)"/>
    </g>
</svg>
