<svg xmlns="http://www.w3.org/2000/svg" xmlns:xlink="http://www.w3.org/1999/xlink" width="113" height="22" viewBox="0 0 113 22">
    <defs>
        <path id="2zwfuqlcsa" d="M0 0.131L17.911 0.131 17.911 18 0 18z"/>
        <path id="0kfnogx9uc" d="M0 20.633L111.859 20.633 111.859 0 0 0z"/>
        <path id="91ekhiq7ce" d="M0 20.633L111.859 20.633 111.859 0 0 0z"/>
        <path id="j6kkxsxq5g" d="M0 20.633L111.859 20.633 111.859 0 0 0z"/>
    </defs>
    <g fill="none" fill-rule="evenodd">
        <g>
            <g>
                <g>
                    <g transform="translate(-405 -630) translate(389 292) translate(16 338) translate(0 2.633)">
                        <mask id="44pjx8pvpb" fill="#fff">
                            <use xlink:href="#2zwfuqlcsa"/>
                        </mask>
                        <path fill="#FDC114" fill-rule="nonzero" d="M13.286 13.384c-1.158 1.154-2.695 1.79-4.33 1.79-1.634 0-3.172-.636-4.329-1.789-1.156-1.155-1.794-2.689-1.794-4.32 0-1.63.638-3.164 1.794-4.318 1.157-1.154 2.695-1.79 4.328-1.79 1.634 0 3.172.636 4.33 1.789 1.156 1.155 1.793 2.689 1.793 4.319 0 1.631-.637 3.165-1.792 4.319M8.956.132C4.018.13 0 4.139 0 9.064 0 13.99 4.019 18 8.955 18c4.938 0 8.956-4.01 8.956-8.936 0-4.924-4.018-8.932-8.956-8.933" mask="url(#44pjx8pvpb)"/>
                    </g>
                    <g transform="translate(-405 -630) translate(389 292) translate(16 338)">
                        <mask id="flogpsi7bd" fill="#fff">
                            <use xlink:href="#0kfnogx9uc"/>
                        </mask>
                        <path fill="#FDC114" fill-rule="nonzero" d="M18.711 2.085h.7v-.696h-.7v.696zm0-1.387h.7V0h-.7v.698zM16.746 2.76h.653v-.68h-.653v.68z" mask="url(#flogpsi7bd)"/>
                    </g>
                    <g transform="translate(-405 -630) translate(389 292) translate(16 338)">
                        <mask id="9sci4b9luf" fill="#fff">
                            <use xlink:href="#91ekhiq7ce"/>
                        </mask>
                        <path fill="#FEFEFE" fill-rule="nonzero" d="M15.454 4.066h.657v-.65h-.657v.65zm1.945-.65h.731V2.76h-.73v.655zm-2.599 0h.654v-.624H14.8v.623zm1.947.65h.653v-.65h-.653v.65zm1.274-2.678h.69v-.69h-.69v.69zm-1.274.692h1.274v-.691h-1.274v.69zm-.636 1.336h.635V2.08h-.635v1.336z" mask="url(#9sci4b9luf)"/>
                    </g>
                    <g transform="translate(-405 -630) translate(389 292) translate(16 338)">
                        <mask id="omes62tl9h" fill="#fff">
                            <use xlink:href="#j6kkxsxq5g"/>
                        </mask>
                        <path fill="#FEFEFE" fill-rule="nonzero" d="M16.111 4.722h-.657v-.656h-1.091v.472h-.585v.583h.653v.649h-.653v-.649h-.693V6.14h-.658v.65h-.434v.652h-.48c-.538.798-1.886 3.285-2.294 4.3-1.468-2.04-2.608-2.85-3.506-3.142-.486-.145-1.07.381-.264 1.21 1.848 2.027 2.43 3.706 2.992 5.045.297.707 1.63.817 1.897.098.57-1.52 1.394-3.229 2.37-4.63v-.729h.521V8.94h.55v-.76h.655v-.732h-.664v-.665h.664v.665h.647l-.001-.658h.52v-.796h.583v-.547h.564V4.066h-.636v.656zm35.19 9.135c-.055.271-.152.517-.286.734-.136.218-.322.395-.553.526-.231.131-.518.197-.854.197-.335 0-.62-.066-.847-.197-.226-.13-.41-.308-.546-.526-.134-.216-.23-.463-.286-.734-.055-.267-.082-.544-.082-.824 0-.28.028-.56.082-.83.056-.276.152-.524.287-.735.136-.214.319-.391.544-.525.226-.136.512-.205.848-.205.336 0 .624.069.855.205.23.134.416.311.552.525.134.212.23.46.286.735.055.27.083.55.083.83 0 .28-.028.557-.083.824m.89-3.432c-.308-.309-.682-.551-1.117-.72-.435-.17-.928-.257-1.466-.257-.538 0-1.028.087-1.459.257-.43.169-.803.411-1.11.72-.306.308-.546.687-.712 1.127-.167.44-.252.939-.252 1.481 0 .542.085 1.038.252 1.474.166.436.406.813.712 1.12.307.31.68.55 1.11.714.43.166.921.25 1.46.25.537 0 1.03-.085 1.466-.25.434-.165.808-.405 1.116-.713.306-.31.547-.685.712-1.12.168-.437.253-.933.253-1.475 0-.541-.085-1.04-.252-1.48-.167-.44-.407-.82-.713-1.128m7.682-.221c-.18-.235-.43-.42-.747-.553-.318-.134-.734-.203-1.235-.203-.392 0-.78.091-1.157.268-.372.176-.767.462-1.002.85l-.02.035c-.012.017-.026.026-.043.026-.017 0-.025-.01-.025-.026v-.965h-1.679v6.78h1.774v-3.557c0-.718.122-1.244.365-1.563.248-.326.65-.49 1.193-.49.484 0 .827.152 1.02.454.187.292.282.735.282 1.317v3.839h1.772V12.23c0-.421-.037-.811-.113-1.157-.074-.34-.203-.633-.385-.869m-32.824 3.4l-4.167-6.588H20.97v9.419h1.759v-6.62l.14.218 4.013 6.402h1.926V7.016h-1.759v6.589zm7.794.253c-.055.271-.151.517-.285.734-.137.218-.324.395-.553.526-.23.131-.519.197-.854.197-.336 0-.62-.066-.847-.197-.227-.13-.41-.308-.546-.526-.134-.217-.23-.463-.286-.734-.055-.267-.083-.544-.083-.824 0-.28.028-.56.083-.83.056-.276.152-.523.286-.735.137-.214.32-.391.544-.525.228-.136.513-.205.85-.205.335 0 .622.069.854.205.23.134.415.311.551.525.135.212.231.46.286.735.056.27.083.55.083.83 0 .28-.027.557-.083.824m.89-3.432c-.307-.309-.683-.551-1.116-.72-.435-.17-.929-.257-1.466-.257-.538 0-1.029.087-1.459.257-.43.169-.803.411-1.11.72-.306.308-.546.687-.712 1.127-.168.44-.253.939-.253 1.481 0 .542.085 1.038.252 1.474.166.436.407.813.713 1.12.307.31.68.55 1.11.714.43.166.921.25 1.46.25.536 0 1.03-.085 1.465-.25.434-.165.81-.405 1.117-.713.305-.31.547-.685.713-1.12.166-.437.252-.933.252-1.475 0-.541-.085-1.04-.253-1.48-.166-.44-.407-.82-.713-1.128M44.281 7.6l-1.772-.016-.019 1.964h-.46s-.844-.033-1.576.237c-.45.166-.826.455-1.069.893-.046.086-.089.178-.125.276-.006.021-.02.031-.041.031-.023 0-.032-.01-.032-.03V9.668h-1.679v6.78h1.773V13.4c0-.317.032-.615.096-.886.041-.176.103-.336.18-.485.32-.514 1.014-1.025 2.51-1.04h.41l-.04 3.955c-.003.335.051.608.16.811.108.203.258.361.447.472.192.113.42.191.675.23.26.043.54.066.833.069.182.002.377-.001.578-.008.17-.006.328-.02.47-.04l.014-1.324c-.067.01-.135.017-.205.023-.102.009-.208.012-.318.011-.347-.003-.575-.065-.698-.188-.122-.124-.18-.35-.177-.696l.033-3.315h1.365V9.548h-1.352l.02-1.948zm20.082.133h-2.064v8.658h6.28v-1.595h-4.216V7.733zm5.103 8.658h1.912V9.588h-1.912v6.803zm0-7.745h1.912v-1.63h-1.912v1.63zm4.342-.962c-.29.284-.405.73-.405 1.583v.322h-1.05v1.484h1.05v5.318h1.95v-5.318h1.418V9.6h-1.43V9.33c0-.334.025-.47.088-.544.075-.062.152-.087.405-.087h.937V7.263h-1.595c-.747 0-1.076.136-1.368.42m5.37 4.676c.011-.952.075-1.163.164-1.249.088-.1.29-.124.62-.124h1.052c.392 0 .506.037.582.112.088.098.151.346.151 1.261h-2.57zm2.481-2.77h-2.355c-.71 0-1.089.11-1.38.408-.456.457-.634.99-.634 2.993s.177 2.535.634 2.981c.304.309.67.42 1.38.42h2.583c.746 0 1.025-.186 1.24-.396.342-.333.456-.725.47-1.74H81.81c-.013.483-.039.54-.102.615-.075.086-.177.123-.569.123h-1.178c-.33 0-.532-.024-.62-.123-.076-.087-.153-.274-.165-1.35h4.14c.228 0 .28-.074.28-.272v-.32c0-1.954-.102-2.486-.558-2.931-.291-.297-.67-.409-1.38-.409zm4.056-1.855h-1v8.657h5.508v-.84h-4.508V7.733zm9.553 7.656c-.139.136-.33.185-.81.185h-1.57c-.48 0-.67-.05-.823-.185-.202-.2-.304-.52-.304-2.314 0-1.78.102-2.102.304-2.3.152-.148.342-.186.823-.186h1.57c.481 0 .671.038.81.186.203.198.317.52.317 2.3 0 1.794-.114 2.115-.316 2.314m-.71-5.616h-1.772c-.696 0-1.089.087-1.38.371-.43.42-.582.953-.582 2.931 0 1.992.152 2.524.582 2.944.292.285.684.371 1.38.371h1.773c.683 0 1.088-.086 1.368-.37.442-.42.595-.953.595-2.945 0-1.978-.152-2.51-.595-2.93-.28-.285-.685-.372-1.368-.372m7.198 5.628c-.152.136-.317.173-.735.173h-1.48c-.482 0-.672-.05-.824-.186-.202-.197-.304-.52-.304-2.312 0-1.782.102-2.103.304-2.301.152-.148.342-.185.824-.185h1.48c.418 0 .57.037.71.172.14.137.215.334.252 1.175h.912c-.025-1.1-.152-1.52-.468-1.83-.254-.247-.545-.334-1.216-.334h-1.772c-.696 0-1.09.087-1.38.371-.43.42-.582.952-.582 2.932 0 1.99.151 2.523.582 2.943.29.284.683.371 1.38.371h1.785c.646 0 .962-.1 1.203-.333.33-.322.456-.706.494-1.906h-.912c-.026.841-.1 1.101-.253 1.25m7.464-5.628h-1.127l-2.494 2.895h-.696V7.486h-.937v8.906h.937v-2.957h.67l2.57 2.957h1.179l-2.988-3.39 2.886-3.228zm2.277-.295l-.22.82-.232-.82h-.36v1.123h.228v-.859l.245.859h.215l.249-.859v.859h.235V9.479h-.36zm-1.885.184h.303v.938h.24v-.938h.299V9.48h-.842v.184z" mask="url(#omes62tl9h)"/>
                    </g>
                </g>
            </g>
        </g>
    </g>
</svg>
