<?xml version="1.0" encoding="UTF-8"?>
<svg width="196px" height="38px" viewBox="0 0 196 38" version="1.1" xmlns="http://www.w3.org/2000/svg" xmlns:xlink="http://www.w3.org/1999/xlink">
    <!-- Generator: Sketch 64 (93537) - https://sketch.com -->
    <title>logo-norton-header</title>
    <desc>Created with Sketch.</desc>
    <g id="logo-norton-header" stroke="none" stroke-width="1" fill="none" fill-rule="evenodd">
        <g id="logo/NLL/light/256x60" transform="translate(-9.000000, -3.000000)">
            <g id="NortonLifeLock-Horizontal-Light-RGB-WEB">
                <path d="M32.0466021,32.2662338 C30.0451887,34.2642857 27.3863626,35.3642857 24.5596175,35.3642857 C21.7348174,35.3642857 19.0766396,34.2642857 17.0765229,32.2694805 C15.0764062,30.2688312 13.974235,27.6123377 13.974235,24.7876623 C13.974235,21.9649351 15.0764062,19.3090909 17.0752263,17.3103896 C19.0772879,15.312987 21.7348174,14.212987 24.5596175,14.212987 C27.3837693,14.212987 30.043892,15.312987 32.0466021,17.3090909 C34.0441254,19.3090909 35.145,21.9649351 35.145,24.7876623 C35.145,27.6123377 34.0441254,30.2688312 32.0466021,32.2662338 Z M24.5596175,9.31818182 C16.0242735,9.31948052 9.07735288,16.2590909 9.07670455,24.7876623 C9.07735288,33.3181818 16.0242735,40.2584416 24.5596175,40.2597403 C33.0956098,40.2584416 40.0425304,33.3181818 40.0425304,24.7876623 C40.0425304,16.2590909 33.0956098,9.31948052 24.5596175,9.31818182 L24.5596175,9.31818182 Z" id="Fill-1" fill="#F3B53B"></path>
                <rect id="Rectangle" x="0" y="0" width="49.921875" height="50"></rect>
                <polygon id="Fill-3" fill="#F3B53B" points="41.4254312 8.14220779 42.6339296 8.14220779 42.6339296 6.93766234 41.4254312 6.93766234"></polygon>
                <polygon id="Fill-4" fill="#F3B53B" points="41.4254312 5.74090909 42.6339296 5.74090909 42.6339296 4.53246753 41.4254312 4.53246753"></polygon>
                <polygon id="Fill-5" fill="#F3B53B" points="38.0300954 9.31103896 39.1588484 9.31103896 39.1588484 8.13376623 38.0300954 8.13376623"></polygon>
                <polygon id="Fill-6" fill="#0A0B09" points="35.7939844 11.5727273 36.9311658 11.5727273 36.9311658 10.4474026 35.7939844 10.4474026"></polygon>
                <polygon id="Fill-7" fill="#0A0B09" points="39.1582001 10.4467532 40.421807 10.4467532 40.421807 9.31168831 39.1582001 9.31168831"></polygon>
                <polygon id="Fill-8" fill="#0A0B09" points="34.664583 10.4467532 35.795281 10.4467532 35.795281 9.36753247 34.664583 9.36753247"></polygon>
                <polygon id="Fill-9" fill="#0A0B09" points="38.0300954 11.5727273 39.1588484 11.5727273 39.1588484 10.4474026 38.0300954 10.4474026"></polygon>
                <polygon id="Fill-10" fill="#0A0B09" points="40.2324929 6.93636364 41.4260795 6.93636364 41.4260795 5.74090909 40.2324929 5.74090909"></polygon>
                <polygon id="Fill-11" fill="#0A0B09" points="38.0300954 8.13376623 40.2324929 8.13376623 40.2324929 6.93701299 38.0300954 6.93701299"></polygon>
                <polygon id="Fill-12" fill="#0A0B09" points="36.9318141 10.4474026 38.0281504 10.4474026 38.0281504 8.13376623 36.9318141 8.13376623"></polygon>
                <path d="M36.9318141,12.7084416 L35.7939844,12.7084416 L35.7939844,11.5727273 L33.9086232,11.5727273 L33.9086232,12.3909091 L32.8978673,12.3909091 L32.8978673,13.4006494 L34.0272687,13.4006494 L34.0272687,14.524026 L32.8978673,14.524026 L32.8978673,13.4006494 L31.6984456,13.4006494 L31.6984456,15.1636364 L30.5619125,15.1636364 L30.5619125,16.288961 L29.8098427,16.288961 L29.8098427,17.4188312 L28.9819176,17.4188312 C28.0515554,18.8012987 25.7214357,23.1071429 25.0153977,24.862987 C22.4771621,21.3324675 20.5055722,19.9311688 18.9534558,19.424026 C18.1138606,19.1727273 17.1050497,20.0837662 18.4970272,21.5188312 C21.6920272,25.0285714 22.6988931,27.937013 23.6701004,30.2564935 C24.1842309,31.4792208 26.4871205,31.6688312 26.9506808,30.4246753 C27.9335582,27.7915584 29.3598975,24.8337662 31.0475162,22.4064935 L31.0475162,21.1461039 L31.9493517,21.1461039 L31.9493517,20.012987 L32.8978673,20.012987 L32.8978673,18.6974026 L34.0311587,18.6974026 L34.0311587,17.4298701 L32.8849006,17.4298701 L32.8849006,16.2779221 L34.0311587,16.2779221 L34.0311587,17.4298701 L35.150835,17.4298701 L35.146945,16.288961 L36.0474838,16.288961 L36.0474838,14.9123377 L37.0562946,14.9123377 L37.0562946,13.9642857 L38.0300954,13.9642857 L38.0300954,11.5727273 L36.9318141,11.5727273 L36.9318141,12.7084416" id="Fill-13" fill="#0A0B09"></path>
                <path d="M97.7710197,28.5272727 C97.6744176,28.9961039 97.5077953,29.4227273 97.2769876,29.7974026 C97.040345,30.1766234 96.7194186,30.4831169 96.320692,30.7097403 C95.921317,30.9363636 95.4253399,31.05 94.8437825,31.05 C94.26417,31.05 93.7707863,30.9363636 93.3791914,30.7084416 C92.9888931,30.4831169 92.6718567,30.175974 92.4365108,29.7974026 C92.2044065,29.424026 92.0377841,28.9967532 91.9418304,28.5272727 C91.8471733,28.0649351 91.7991964,27.5857143 91.7991964,27.1006494 C91.7991964,26.6162338 91.8471733,26.1311688 91.9418304,25.6623377 C92.0377841,25.1850649 92.2044065,24.7564935 92.4371591,24.3902597 C92.6725051,24.0207792 92.9888931,23.7136364 93.3778947,23.4805195 C93.770138,23.2454545 94.2635217,23.125974 94.8437825,23.125974 C95.4253399,23.125974 95.9226136,23.2454545 96.3219886,23.4798701 C96.720067,23.7136364 97.040345,24.0201299 97.2763393,24.3902597 C97.5077953,24.7571429 97.6744176,25.1857143 97.7710197,25.6623377 C97.8656767,26.1311688 97.9136536,26.6149351 97.9136536,27.1006494 C97.9136536,27.5857143 97.8656767,28.0649351 97.7710197,28.5272727 Z M99.3088728,22.5844156 C98.7778856,22.05 98.1295495,21.6298701 97.3787764,21.337013 C96.6267066,21.0428571 95.7741447,20.8935065 94.8437825,20.8935065 C93.9147169,20.8935065 93.0666934,21.0422078 92.3217553,21.337013 C91.5787622,21.6298701 90.9330195,22.05 90.4033289,22.5844156 C89.8736384,23.1181818 89.4587033,23.7746753 89.1708421,24.5357143 C88.8810359,25.2987013 88.7358086,26.161039 88.7358086,27.1006494 C88.7358086,28.0396104 88.8810359,28.8974026 89.1708421,29.6525974 C89.4587033,30.4071429 89.8736384,31.0590909 90.4033289,31.5935065 C90.9330195,32.1279221 91.5787622,32.5428571 92.3211069,32.8285714 C93.066045,33.1149351 93.9147169,33.2603896 94.8437825,33.2603896 C95.7741447,33.2603896 96.6280032,33.1149351 97.3800731,32.8285714 C98.1295495,32.5428571 98.7778856,32.1279221 99.3088728,31.5935065 C99.8385633,31.0584416 100.253498,30.4071429 100.542008,29.6525974 C100.831166,28.8974026 100.97769,28.0383117 100.97769,27.1006494 C100.97769,26.1623377 100.831166,25.2987013 100.542008,24.5357143 C100.253498,23.7753247 99.8385633,23.1188312 99.3088728,22.5844156 L99.3088728,22.5844156 Z" id="Fill-14" fill="#0A0B09"></path>
                <path d="M112.591333,22.2012987 C112.278835,21.7954545 111.845098,21.4733766 111.299199,21.2435065 C110.749411,21.0116883 110.031054,20.8935065 109.164877,20.8935065 C108.487366,20.8935065 107.813745,21.0493506 107.164761,21.3564935 C106.520315,21.6616883 105.837617,22.1558442 105.431758,22.8272727 L105.395452,22.8876623 C105.376001,22.9181818 105.351365,22.9331169 105.32219,22.9331169 C105.292366,22.9331169 105.279399,22.9181818 105.279399,22.8876623 L105.279399,21.2188312 L102.376799,21.2188312 L102.376799,32.9584416 L105.443428,32.9584416 L105.443428,26.7987013 C105.443428,25.5558442 105.654786,24.6448052 106.073611,24.0928571 C106.503458,23.5285714 107.197177,23.2422078 108.137913,23.2422078 C108.973618,23.2422078 109.567494,23.5077922 109.901387,24.0305195 C110.224258,24.5357143 110.388287,25.3025974 110.388287,26.3116883 L110.388287,32.9584416 L113.452323,32.9584416 L113.452323,25.7084416 C113.452323,24.9798701 113.38749,24.3051948 113.256526,23.7051948 C113.128804,23.1155844 112.905128,22.6090909 112.591333,22.2012987" id="Fill-15" fill="#0A0B09"></path>
                <polyline id="Fill-16" fill="#0A0B09" points="55.841183 28.0902597 48.6381696 16.6818182 45.3316558 16.6818182 45.3316558 32.9902597 48.3723519 32.9902597 48.3723519 21.5285714 48.6148295 21.9051948 55.5520252 32.9902597 58.8825274 32.9902597 58.8825274 16.6818182 55.8418314 16.6818182 55.841183 28.0902597"></polyline>
                <path d="M69.3174959,28.5272727 C69.2215422,28.9961039 69.0555682,29.4227273 68.8228155,29.7974026 C68.5874696,30.1766234 68.2652466,30.4831169 67.8678166,30.7097403 C67.4677932,30.9363636 66.9711678,31.05 66.3915554,31.05 C65.809998,31.05 65.3179109,30.9363636 64.9263159,30.7084416 C64.5353693,30.4831169 64.218333,30.175974 63.9836353,29.7974026 C63.7508827,29.4227273 63.5842603,28.9961039 63.488955,28.5272727 C63.3942979,28.0649351 63.3456727,27.5857143 63.3456727,27.1006494 C63.3456727,26.6162338 63.3942979,26.1311688 63.488955,25.6623377 C63.5842603,25.1857143 63.7508827,24.7571429 63.9836353,24.3902597 C64.2189813,24.0207792 64.5353693,23.7136364 64.9250193,23.4805195 C65.3172626,23.2454545 65.809998,23.125974 66.3915554,23.125974 C66.9718162,23.125974 67.4690899,23.2454545 67.8691132,23.4798701 C68.2658949,23.712987 68.5874696,24.0201299 68.8221672,24.3902597 C69.0555682,24.7571429 69.2215422,25.1857143 69.3174959,25.6623377 C69.4128013,26.1311688 69.4601299,26.6149351 69.4601299,27.1006494 C69.4601299,27.5857143 69.4128013,28.0649351 69.3174959,28.5272727 Z M70.8559974,22.5844156 C70.3250101,22.05 69.6753774,21.6298701 68.9252526,21.337013 C68.1738312,21.0428571 67.3206209,20.8935065 66.3915554,20.8935065 C65.4618415,20.8935065 64.6131696,21.0422078 63.8688799,21.337013 C63.1258868,21.6298701 62.4801441,22.05 61.9511019,22.5844156 C61.4201147,23.1181818 61.0051796,23.7746753 60.7179667,24.5357143 C60.4281605,25.2987013 60.2816366,26.161039 60.2816366,27.1006494 C60.2816366,28.0396104 60.4281605,28.8974026 60.7173184,29.6525974 C61.0051796,30.4071429 61.4201147,31.0590909 61.9511019,31.5935065 C62.4801441,32.1279221 63.1258868,32.5428571 63.8675832,32.8285714 C64.6131696,33.1149351 65.4618415,33.2603896 66.3915554,33.2603896 C67.3206209,33.2603896 68.1738312,33.1149351 68.9265493,32.8285714 C69.6760258,32.5428571 70.3250101,32.1279221 70.8559974,31.5935065 C71.3850396,31.0584416 71.8019196,30.4064935 72.0884842,29.6525974 C72.377642,28.8974026 72.5248143,28.038961 72.5248143,27.1006494 C72.5248143,26.1623377 72.377642,25.2987013 72.0878358,24.5357143 C71.8019196,23.7753247 71.3850396,23.1188312 70.8559974,22.5844156 L70.8559974,22.5844156 Z" id="Fill-17" fill="#0A0B09"></path>
                <path d="M85.6348174,17.6928571 L82.5701329,17.6642857 L82.5377161,21.0655844 L81.7409111,21.0655844 C81.7409111,21.0655844 80.2828034,21.0097403 79.0166031,21.4766234 C78.2392482,21.7623377 77.5889671,22.2636364 77.170142,23.0220779 C77.0891,23.1714286 77.0158381,23.3305195 76.9523011,23.5012987 C76.9425761,23.537013 76.919236,23.5551948 76.8816325,23.5551948 C76.844029,23.5551948 76.8258756,23.537013 76.8258756,23.5012987 L76.8258756,21.2746753 L73.9245718,21.2746753 L73.9245718,33.0149351 L76.9899046,33.0149351 L76.9899046,27.7357143 C76.9899046,27.1876623 77.0443649,26.6707792 77.1558787,26.2006494 C77.2265473,25.8967532 77.3335227,25.6188312 77.4657833,25.3616883 C78.0207589,24.4733766 79.2201806,23.5876623 81.8070414,23.5616883 L82.5130793,23.5616883 L82.4469491,30.4090909 C82.4417624,30.9896104 82.5344744,31.4623377 82.7224919,31.8142857 C82.9085643,32.1649351 83.1691954,32.4396104 83.4966051,32.6305195 C83.8279048,32.825974 84.2214448,32.9616883 84.661665,33.0318182 C85.1122585,33.1051948 85.5965655,33.1435065 86.1022677,33.1487013 C86.417359,33.1525974 86.7544937,33.1467532 87.1013535,33.1344156 C87.3944014,33.1246753 87.6686475,33.1019481 87.9143669,33.0675325 L87.9383553,30.7733766 C87.8223032,30.7909091 87.7049543,30.8038961 87.5837155,30.8136364 C87.4086648,30.8279221 87.223889,30.8344156 87.0352232,30.8324675 C86.4342157,30.825974 86.0400274,30.7201299 85.8273732,30.5058442 C85.6173123,30.2922078 85.5168202,29.8987013 85.5220069,29.3012987 L85.5784121,23.5616883 L87.9383553,23.5616883 L87.9383553,21.0655844 L85.6024006,21.0655844 L85.6348174,17.6928571" id="Fill-18" fill="#0A0B09"></path>
                <polyline id="Fill-19" fill="#0A0B09" points="120.353212 17.9227273 116.784771 17.9227273 116.784771 32.9155844 127.642454 32.9155844 127.642454 30.1525974 120.353212 30.1525974 120.353212 17.9227273"></polyline>
                <polygon id="Fill-20" fill="#0A0B09" points="129.176417 32.9155844 132.482283 32.9155844 132.482283 21.1357143 129.176417 21.1357143"></polygon>
                <polygon id="Fill-21" fill="#0A0B09" points="129.176417 19.5038961 132.482283 19.5038961 132.482283 16.6818182 129.176417 16.6818182"></polygon>
                <path d="M136.6835,17.8376623 C136.179743,18.3298701 135.983297,19.1012987 135.983297,20.5792208 L135.983297,21.1357143 L134.166012,21.1357143 L134.166012,23.7058442 L135.983297,23.7058442 L135.983297,32.9155844 L139.353997,32.9155844 L139.353997,23.7058442 L141.806003,23.7058442 L141.806003,21.1577922 L139.332601,21.1577922 L139.332601,20.6863636 C139.332601,20.1077922 139.376688,19.8714286 139.485609,19.7435065 C139.616573,19.6363636 139.748185,19.5935065 140.18646,19.5935065 L141.806003,19.5935065 L141.806003,17.1097403 L139.04863,17.1097403 C137.757145,17.1097403 137.187258,17.3448052 136.6835,17.8376623" id="Fill-22" fill="#0A0B09"></path>
                <path d="M145.966376,25.9331169 C145.987123,24.2850649 146.09734,23.9201299 146.250347,23.7701299 C146.403354,23.5987013 146.753456,23.5564935 147.322695,23.5564935 L149.139981,23.5564935 C149.818789,23.5564935 150.015883,23.6201299 150.147495,23.7493506 C150.299854,23.9201299 150.409423,24.3480519 150.409423,25.9331169 L145.966376,25.9331169 Z M150.257064,21.1357143 L146.184865,21.1357143 C144.958862,21.1357143 144.302097,21.3285714 143.798988,21.8428571 C143.010612,22.6344156 142.703949,23.5564935 142.703949,27.0253247 C142.703949,30.4954545 143.010612,31.4155844 143.798988,32.1876623 C144.324141,32.7227273 144.958862,32.9155844 146.184865,32.9155844 L150.650604,32.9155844 C151.941441,32.9155844 152.423803,32.5941558 152.795948,32.2292208 C153.386582,31.6519481 153.583676,30.9733766 153.606368,29.2168831 L150.51964,29.2168831 C150.497596,30.0532468 150.45351,30.1525974 150.343941,30.2805195 C150.212329,30.4311688 150.037278,30.4954545 149.359767,30.4954545 L147.322695,30.4954545 C146.753456,30.4954545 146.403354,30.4519481 146.250347,30.2805195 C146.118735,30.1318182 145.987123,29.8064935 145.966376,27.9428571 L153.124654,27.9428571 C153.518194,27.9428571 153.606368,27.8142857 153.606368,27.4727273 L153.606368,26.9175325 C153.606368,23.5350649 153.43002,22.6142857 152.64294,21.8428571 C152.139183,21.3285714 151.482419,21.1357143 150.257064,21.1357143 L150.257064,21.1357143 Z" id="Fill-23" fill="#0A0B09"></path>
                <polyline id="Fill-24" fill="#0A0B09" points="157.268818 17.9233766 155.539706 17.9233766 155.539706 32.9155844 165.062466 32.9155844 165.062466 31.4597403 157.268818 31.4597403 157.268818 17.9233766"></polyline>
                <path d="M173.786475,31.1811688 C173.545294,31.4168831 173.216588,31.5019481 172.385421,31.5019481 L169.67019,31.5019481 C168.838375,31.5019481 168.510317,31.4168831 168.24774,31.1811688 C167.898287,30.8376623 167.722588,30.2811688 167.722588,27.175974 C167.722588,24.0922078 167.898287,23.5344156 168.24774,23.1922078 C168.510317,22.9350649 168.838375,22.8701299 169.67019,22.8701299 L172.385421,22.8701299 C173.216588,22.8701299 173.545294,22.9350649 173.786475,23.1922078 C174.136577,23.5344156 174.333023,24.0922078 174.333023,27.175974 C174.333023,30.2811688 174.136577,30.8376623 173.786475,31.1811688 Z M172.559823,21.4564935 L169.495139,21.4564935 C168.291827,21.4564935 167.612371,21.6077922 167.109262,22.1 C166.365621,22.8285714 166.102397,23.7493506 166.102397,27.175974 C166.102397,30.624026 166.365621,31.5448052 167.109262,32.2727273 C167.612371,32.7655844 168.291827,32.9155844 169.495139,32.9155844 L172.559823,32.9155844 C173.741092,32.9155844 174.442591,32.7655844 174.924953,32.2727273 C175.68999,31.5448052 175.953214,30.624026 175.953214,27.175974 C175.953214,23.7493506 175.68999,22.8285714 174.924953,22.1 C174.442591,21.6077922 173.741092,21.4564935 172.559823,21.4564935 L172.559823,21.4564935 Z" id="Fill-25" fill="#0A0B09"></path>
                <path d="M185.00593,31.2019481 C184.743354,31.4376623 184.458086,31.5025974 183.73584,31.5025974 L181.174913,31.5025974 C180.342449,31.5025974 180.01504,31.4155844 179.751815,31.1805195 C179.401714,30.838961 179.226663,30.2811688 179.226663,27.175974 C179.226663,24.0915584 179.401714,23.5350649 179.751815,23.1915584 C180.01504,22.9350649 180.342449,22.8707792 181.174913,22.8707792 L183.73584,22.8707792 C184.458086,22.8707792 184.720663,22.9350649 184.961844,23.1701299 C185.202376,23.4058442 185.334637,23.7493506 185.39947,25.2045455 L186.975575,25.2045455 C186.932137,23.2987013 186.712351,22.5707792 186.166452,22.0350649 C185.728177,21.6071429 185.223771,21.4571429 184.063898,21.4571429 L180.999862,21.4571429 C179.795254,21.4571429 179.116446,21.6071429 178.613985,22.1 C177.869696,22.8285714 177.606471,23.7493506 177.606471,27.175974 C177.606471,30.624026 177.869696,31.5454545 178.613985,32.2733766 C179.116446,32.7649351 179.795254,32.9155844 180.999862,32.9155844 L184.085942,32.9155844 C185.202376,32.9155844 185.75022,32.7435065 186.166452,32.3376623 C186.735691,31.7798701 186.953532,31.1155844 187.019662,29.038961 L185.443557,29.038961 C185.39947,30.4948052 185.269155,30.9454545 185.00593,31.2019481" id="Fill-26" fill="#0A0B09"></path>
                <polyline id="Fill-27" fill="#0A0B09" points="197.910411 21.4571429 195.962809 21.4571429 191.650726 26.4694805 190.446118 26.4694805 190.446118 17.4948052 188.825926 17.4948052 188.825926 32.9155844 190.446118 32.9155844 190.446118 27.7967532 191.605991 27.7967532 196.049686 32.9155844 198.08611 32.9155844 192.920168 27.0474026 197.910411 21.4571429"></polyline>
                <polyline id="Fill-28" fill="#0A0B09" points="201.847107 20.9467532 201.466534 22.3649351 201.066511 20.9467532 200.442163 20.9467532 200.442163 22.8896104 200.837 22.8896104 200.837 21.4038961 201.260363 22.8896104 201.632508 22.8896104 202.062355 21.4038961 202.062355 22.8896104 202.470158 22.8896104 202.470158 20.9467532 201.847107 20.9467532"></polyline>
                <polyline id="Fill-29" fill="#0A0B09" points="198.589219 21.2655844 199.111778 21.2655844 199.111778 22.8896104 199.527361 22.8896104 199.527361 21.2655844 200.042788 21.2655844 200.042788 20.9467532 198.589219 20.9467532 198.589219 21.2655844"></polyline>
            </g>
        </g>
    </g>
</svg>