<?xml version="1.0" encoding="UTF-8"?>
<svg width="157px" height="30px" viewBox="0 0 157 30" version="1.1" xmlns="http://www.w3.org/2000/svg" xmlns:xlink="http://www.w3.org/1999/xlink">
    <!-- Generator: Sketch 64 (93537) - https://sketch.com -->
    <title>icon-norton-lifelock-logo Copy</title>
    <desc>Created with Sketch.</desc>
    <g id="icon-norton-lifelock-logo-Copy" stroke="none" stroke-width="1" fill="none" fill-rule="evenodd">
        <g id="logo/NLL/dark/170x40" transform="translate(-7.000000, -3.000000)">
            <g id="NortonLifeLock-Horizontal-Dark-RGB-WEB">
                <path d="M25.6883408,25.812987 C24.0840213,27.4114286 21.9527242,28.2914286 19.6868243,28.2914286 C17.4224835,28.2914286 15.2917061,27.4114286 13.688426,25.8155844 C12.0851459,24.2150649 11.2016528,22.0898701 11.2016528,19.8301299 C11.2016528,17.5719481 12.0851459,15.4472727 13.6873866,13.8483117 C15.2922258,12.2503896 17.4224835,11.3703896 19.6868243,11.3703896 C21.9506454,11.3703896 24.0829819,12.2503896 25.6883408,13.8472727 C27.2895421,15.4472727 28.1719957,17.5719481 28.1719957,19.8301299 C28.1719957,22.0898701 27.2895421,24.2150649 25.6883408,25.812987 Z M19.6868243,7.45454545 C12.8449499,7.45558442 7.27634505,13.0072727 7.27582535,19.8301299 C7.27634505,26.6545455 12.8449499,32.2067532 19.6868243,32.2077922 C26.5292183,32.2067532 32.0978232,26.6545455 32.0978232,19.8301299 C32.0978232,13.0072727 26.5292183,7.45558442 19.6868243,7.45454545 L19.6868243,7.45454545 Z" id="Fill-1" fill="#F3B53B"></path>
                <rect id="Rectangle" x="0" y="0" width="40.0170394" height="40"></rect>
                <polygon id="Fill-3" fill="#F3B53B" points="33.2063472 6.51376623 34.1750714 6.51376623 34.1750714 5.55012987 33.2063472 5.55012987"></polygon>
                <polygon id="Fill-4" fill="#F3B53B" points="33.2063472 4.59272727 34.1750714 4.59272727 34.1750714 3.62597403 33.2063472 3.62597403"></polygon>
                <polygon id="Fill-5" fill="#F3B53B" points="30.4846688 7.44883117 31.3894696 7.44883117 31.3894696 6.50701299 30.4846688 6.50701299"></polygon>
                <polygon id="Fill-6" fill="#FFFFFE" points="28.6922173 9.25818182 29.6037742 9.25818182 29.6037742 8.35792208 28.6922173 8.35792208"></polygon>
                <polygon id="Fill-7" fill="#FFFFFE" points="31.3889499 8.3574026 32.4018488 8.3574026 32.4018488 7.44935065 31.3889499 7.44935065"></polygon>
                <polygon id="Fill-8" fill="#FFFFFE" points="27.7868967 8.3574026 28.6932567 8.3574026 28.6932567 7.49402597 27.7868967 7.49402597"></polygon>
                <polygon id="Fill-9" fill="#FFFFFE" points="30.4846688 9.25818182 31.3894696 9.25818182 31.3894696 8.35792208 30.4846688 8.35792208"></polygon>
                <polygon id="Fill-10" fill="#FFFFFE" points="32.2500958 5.54909091 33.2068669 5.54909091 33.2068669 4.59272727 32.2500958 4.59272727"></polygon>
                <polygon id="Fill-11" fill="#FFFFFE" points="30.4846688 6.50701299 32.2500958 6.50701299 32.2500958 5.54961039 30.4846688 5.54961039"></polygon>
                <polygon id="Fill-12" fill="#FFFFFE" points="29.6042939 8.35792208 30.4831097 8.35792208 30.4831097 6.50701299 29.6042939 6.50701299"></polygon>
                <path d="M29.6042939,10.1667532 L28.6922173,10.1667532 L28.6922173,9.25818182 L27.1809244,9.25818182 L27.1809244,9.91272727 L26.3707093,9.91272727 L26.3707093,10.7205195 L27.2760298,10.7205195 L27.2760298,11.6192208 L26.3707093,11.6192208 L26.3707093,10.7205195 L25.4092609,10.7205195 L25.4092609,12.1309091 L24.4982236,12.1309091 L24.4982236,13.0311688 L23.8953695,13.0311688 L23.8953695,13.9350649 L23.2317103,13.9350649 C22.4859382,15.041039 20.6181299,18.4857143 20.0521747,19.8903896 C18.0175421,17.065974 16.4371289,15.9449351 15.1929627,15.5392208 C14.5199489,15.3381818 13.7112929,16.067013 14.8270927,17.2150649 C17.3881832,20.0228571 18.1952801,22.3496104 18.9737934,24.2051948 C19.3859169,25.1833766 21.2318978,25.3350649 21.6034846,24.3397403 C22.3913525,22.2332468 23.5346965,19.867013 24.8874803,17.9251948 L24.8874803,16.9168831 L25.6103855,16.9168831 L25.6103855,16.0103896 L26.3707093,16.0103896 L26.3707093,14.9579221 L27.279148,14.9579221 L27.279148,13.9438961 L26.3603152,13.9438961 L26.3603152,13.0223377 L27.279148,13.0223377 L27.279148,13.9438961 L28.1766731,13.9438961 L28.1735548,13.0311688 L28.8954207,13.0311688 L28.8954207,11.9298701 L29.7040767,11.9298701 L29.7040767,11.1714286 L30.4846688,11.1714286 L30.4846688,9.25818182 L29.6042939,9.25818182 L29.6042939,10.1667532" id="Fill-13" fill="#FFFFFE"></path>
                <path d="M78.3725921,22.8218182 C78.2951565,23.1968831 78.1615932,23.5381818 77.9765793,23.8379221 C77.7868882,24.1412987 77.5296358,24.3864935 77.2100192,24.5677922 C76.8898829,24.7490909 76.492311,24.84 76.0261384,24.84 C75.561525,24.84 75.1660319,24.7490909 74.8521321,24.5667532 C74.5392716,24.3864935 74.2851374,24.1407792 74.0964856,23.8379221 C73.9104324,23.5392208 73.776869,23.1974026 73.6999531,22.8218182 C73.6240767,22.4519481 73.5856187,22.0685714 73.5856187,21.6805195 C73.5856187,21.292987 73.6240767,20.9049351 73.6999531,20.5298701 C73.776869,20.1480519 73.9104324,19.8051948 74.0970053,19.5122078 C74.2856571,19.2166234 74.5392716,18.9709091 74.8510927,18.7844156 C75.1655122,18.5963636 75.5610053,18.5007792 76.0261384,18.5007792 C76.492311,18.5007792 76.8909223,18.5963636 77.2110586,18.7838961 C77.5301555,18.9709091 77.7868882,19.2161039 77.9760596,19.5122078 C78.1615932,19.8057143 78.2951565,20.1485714 78.3725921,20.5298701 C78.4484686,20.9049351 78.4869265,21.2919481 78.4869265,21.6805195 C78.4869265,22.0685714 78.4484686,22.4519481 78.3725921,22.8218182 Z M79.6053248,18.0675325 C79.179689,17.64 78.6599872,17.3038961 78.0581725,17.0696104 C77.4553184,16.8342857 76.7719105,16.7148052 76.0261384,16.7148052 C75.2814058,16.7148052 74.6016358,16.8337662 74.0044984,17.0696104 C73.4089201,17.3038961 72.8912971,17.64 72.4667007,18.0675325 C72.0421044,18.4945455 71.7094952,19.0197403 71.4787476,19.6285714 C71.2464409,20.238961 71.1300277,20.9288312 71.1300277,21.6805195 C71.1300277,22.4316883 71.2464409,23.1179221 71.4787476,23.7220779 C71.7094952,24.3257143 72.0421044,24.8472727 72.4667007,25.2748052 C72.8912971,25.7023377 73.4089201,26.0342857 74.0039787,26.2628571 C74.6011161,26.4919481 75.2814058,26.6083117 76.0261384,26.6083117 C76.7719105,26.6083117 77.4563578,26.4919481 78.0592119,26.2628571 C78.6599872,26.0342857 79.179689,25.7023377 79.6053248,25.2748052 C80.0299212,24.8467532 80.3625304,24.3257143 80.5937977,23.7220779 C80.8255847,23.1179221 80.9430373,22.4306494 80.9430373,21.6805195 C80.9430373,20.9298701 80.8255847,20.238961 80.5937977,19.6285714 C80.3625304,19.0202597 80.0299212,18.4950649 79.6053248,18.0675325 L79.6053248,18.0675325 Z" id="Fill-14" fill="#FFFFFE"></path>
                <path d="M90.2524558,17.761039 C90.0019595,17.4363636 89.654279,17.1787013 89.2166901,16.9948052 C88.775983,16.8093506 88.2001534,16.7148052 87.5058317,16.7148052 C86.9627433,16.7148052 86.4227732,16.8394805 85.9025517,17.0851948 C85.3859681,17.3293506 84.838722,17.7246753 84.5133887,18.2618182 L84.4842854,18.3101299 C84.4686944,18.3345455 84.4489457,18.3464935 84.4255591,18.3464935 C84.4016528,18.3464935 84.3912588,18.3345455 84.3912588,18.3101299 L84.3912588,16.9750649 L82.0645538,16.9750649 L82.0645538,26.3667532 L84.5227433,26.3667532 L84.5227433,21.438961 C84.5227433,20.4446753 84.6921661,19.7158442 85.0278935,19.2742857 C85.3724558,18.8228571 85.9285367,18.5937662 86.6826241,18.5937662 C87.3525197,18.5937662 87.8285666,18.8062338 88.096213,19.2244156 C88.3550245,19.6285714 88.4865091,20.2420779 88.4865091,21.0493506 L88.4865091,26.3667532 L90.9426198,26.3667532 L90.9426198,20.5667532 C90.9426198,19.9838961 90.8906496,19.4441558 90.7856699,18.9641558 C90.6832886,18.4924675 90.5039915,18.0872727 90.2524558,17.761039" id="Fill-15" fill="#FFFFFE"></path>
                <polyline id="Fill-16" fill="#FFFFFE" points="44.7619169 22.4722078 38.9880298 13.3454545 36.3375506 13.3454545 36.3375506 26.3922078 38.7749521 26.3922078 38.7749521 17.2228571 38.9693206 17.5241558 44.5301299 26.3922078 47.1998381 26.3922078 47.1998381 13.3454545 44.7624366 13.3454545 44.7619169 22.4722078"></polyline>
                <path d="M55.5644388,22.8218182 C55.4875229,23.1968831 55.3544792,23.5381818 55.1679063,23.8379221 C54.9792545,24.1412987 54.7209627,24.3864935 54.4023855,24.5677922 C54.0817295,24.7490909 53.6836379,24.84 53.2190245,24.84 C52.752852,24.84 52.3583983,24.7490909 52.0444984,24.5667532 C51.7311182,24.3864935 51.476984,24.1407792 51.288852,23.8379221 C51.102279,23.5381818 50.9687157,23.1968831 50.8923195,22.8218182 C50.816443,22.4519481 50.7774654,22.0685714 50.7774654,21.6805195 C50.7774654,21.292987 50.816443,20.9049351 50.8923195,20.5298701 C50.9687157,20.1485714 51.102279,19.8057143 51.288852,19.5122078 C51.4775037,19.2166234 51.7311182,18.9709091 52.043459,18.7844156 C52.3578786,18.5963636 52.752852,18.5007792 53.2190245,18.5007792 C53.6841576,18.5007792 54.0827689,18.5963636 54.4034249,18.7838961 C54.7214824,18.9703896 54.9792545,19.2161039 55.1673866,19.5122078 C55.3544792,19.8057143 55.4875229,20.1485714 55.5644388,20.5298701 C55.6408349,20.9049351 55.6787732,21.2919481 55.6787732,21.6805195 C55.6787732,22.0685714 55.6408349,22.4519481 55.5644388,22.8218182 Z M56.7976912,18.0675325 C56.3720554,17.64 55.8513142,17.3038961 55.2500192,17.0696104 C54.6476848,16.8342857 53.9637572,16.7148052 53.2190245,16.7148052 C52.4737721,16.7148052 51.7934824,16.8337662 51.1968647,17.0696104 C50.6012865,17.3038961 50.0836635,17.64 49.6595868,18.0675325 C49.233951,18.4945455 48.9013419,19.0197403 48.671114,19.6285714 C48.4388072,20.238961 48.3213546,20.9288312 48.3213546,21.6805195 C48.3213546,22.4316883 48.4388072,23.1179221 48.6705942,23.7220779 C48.9013419,24.3257143 49.233951,24.8472727 49.6595868,25.2748052 C50.0836635,25.7023377 50.6012865,26.0342857 51.1958253,26.2628571 C51.7934824,26.4919481 52.4737721,26.6083117 53.2190245,26.6083117 C53.9637572,26.6083117 54.6476848,26.4919481 55.2510586,26.2628571 C55.8518339,26.0342857 56.3720554,25.7023377 56.7976912,25.2748052 C57.2217678,24.8467532 57.5559361,24.3251948 57.7856443,23.7220779 C58.0174313,23.1179221 58.1354036,22.4311688 58.1354036,21.6805195 C58.1354036,20.9298701 58.0174313,20.238961 57.7851246,19.6285714 C57.5559361,19.0202597 57.2217678,18.4950649 56.7976912,18.0675325 L56.7976912,18.0675325 Z" id="Fill-17" fill="#FFFFFE"></path>
                <path d="M68.6442939,14.1542857 L66.1876635,14.1314286 L66.1616784,16.8524675 L65.5229649,16.8524675 C65.5229649,16.8524675 64.3541555,16.8077922 63.3391778,17.1812987 C62.7160554,17.4098701 62.1947945,17.8109091 61.8590671,18.4176623 C61.7941044,18.5371429 61.7353781,18.6644156 61.6844473,18.801039 C61.6766518,18.8296104 61.6579425,18.8441558 61.6277998,18.8441558 C61.5976571,18.8441558 61.5831054,18.8296104 61.5831054,18.801039 L61.5831054,17.0197403 L59.2574398,17.0197403 L59.2574398,26.4119481 L61.71459,26.4119481 L61.71459,22.1885714 C61.71459,21.7501299 61.7582449,21.3366234 61.8476337,20.9605195 C61.9042812,20.7174026 61.9900319,20.4950649 62.0960511,20.2893506 C62.5409159,19.5787013 63.5023642,18.8701299 65.5759744,18.8493506 L66.1419297,18.8493506 L66.0889201,24.3272727 C66.0847625,24.7916883 66.1590799,25.1698701 66.3097934,25.4514286 C66.4589478,25.7319481 66.6678679,25.9516883 66.9303174,26.1044156 C67.195885,26.2607792 67.511344,26.3693506 67.8642215,26.4254545 C68.2254143,26.4841558 68.6136315,26.5148052 69.0189989,26.518961 C69.271574,26.5220779 69.541819,26.5174026 69.8198594,26.5075325 C70.0547646,26.4997403 70.2745985,26.4815584 70.4715655,26.454026 L70.4907945,24.6187013 C70.3977678,24.6327273 70.3037018,24.6431169 70.2065176,24.6509091 C70.0661981,24.6623377 69.9180831,24.6675325 69.7668498,24.665974 C69.2850863,24.6607792 68.9691076,24.5761039 68.7986454,24.4046753 C68.630262,24.2337662 68.5497082,23.918961 68.5538658,23.441039 L68.5990799,18.8493506 L70.4907945,18.8493506 L70.4907945,16.8524675 L68.6183088,16.8524675 L68.6442939,14.1542857" id="Fill-18" fill="#FFFFFE"></path>
                <polyline id="Fill-19" fill="#FFFFFE" points="96.4743259 14.3381818 93.6138871 14.3381818 93.6138871 26.3324675 102.317333 26.3324675 102.317333 24.1220779 96.4743259 24.1220779 96.4743259 14.3381818"></polyline>
                <polygon id="Fill-20" fill="#FFFFFE" points="103.546948 26.3324675 106.196907 26.3324675 106.196907 16.9085714 103.546948 16.9085714"></polygon>
                <polygon id="Fill-21" fill="#FFFFFE" points="103.546948 15.6031169 106.196907 15.6031169 106.196907 13.3454545 103.546948 13.3454545"></polygon>
                <path d="M109.564575,14.2701299 C109.160767,14.6638961 109.003297,15.281039 109.003297,16.4633766 L109.003297,16.9085714 L107.546573,16.9085714 L107.546573,18.9646753 L109.003297,18.9646753 L109.003297,26.3324675 L111.705227,26.3324675 L111.705227,18.9646753 L113.670739,18.9646753 L113.670739,16.9262338 L111.688077,16.9262338 L111.688077,16.5490909 C111.688077,16.0862338 111.723416,15.8971429 111.810726,15.7948052 C111.915706,15.7090909 112.021206,15.6748052 112.372524,15.6748052 L113.670739,15.6748052 L113.670739,13.6877922 L111.460447,13.6877922 C110.425201,13.6877922 109.968383,13.8758442 109.564575,14.2701299" id="Fill-22" fill="#FFFFFE"></path>
                <path d="M117.005666,20.7464935 C117.022296,19.4280519 117.110645,19.1361039 117.233295,19.0161039 C117.355945,18.878961 117.636584,18.8451948 118.092882,18.8451948 L119.549606,18.8451948 C120.093734,18.8451948 120.251723,18.8961039 120.357223,18.9994805 C120.479353,19.1361039 120.567182,19.4784416 120.567182,20.7464935 L117.005666,20.7464935 Z M120.445052,16.9085714 L117.180805,16.9085714 C116.198049,16.9085714 115.671591,17.0628571 115.268302,17.4742857 C114.636345,18.1075325 114.390526,18.8451948 114.390526,21.6202597 C114.390526,24.3963636 114.636345,25.1324675 115.268302,25.7501299 C115.689261,26.1781818 116.198049,26.3324675 117.180805,26.3324675 L120.760511,26.3324675 C121.795237,26.3324675 122.181896,26.0753247 122.480204,25.7833766 C122.953653,25.3215584 123.111642,24.7787013 123.129832,23.3735065 L120.655531,23.3735065 C120.637862,24.0425974 120.602522,24.1220779 120.514692,24.2244156 C120.409193,24.3449351 120.268873,24.3963636 119.725785,24.3963636 L118.092882,24.3963636 C117.636584,24.3963636 117.355945,24.3615584 117.233295,24.2244156 C117.127796,24.1054545 117.022296,23.8451948 117.005666,22.3542857 L122.743693,22.3542857 C123.059152,22.3542857 123.129832,22.2514286 123.129832,21.9781818 L123.129832,21.534026 C123.129832,18.8280519 122.988473,18.0914286 122.357555,17.4742857 C121.953747,17.0628571 121.427289,16.9085714 120.445052,16.9085714 L120.445052,16.9085714 Z" id="Fill-23" fill="#FFFFFE"></path>
                <polyline id="Fill-24" fill="#FFFFFE" points="126.065627 14.3387013 124.679583 14.3387013 124.679583 26.3324675 132.312963 26.3324675 132.312963 25.1677922 126.065627 25.1677922 126.065627 14.3387013"></polyline>
                <path d="M139.30607,24.9449351 C139.112741,25.1335065 138.849252,25.2015584 138.182995,25.2015584 L136.006483,25.2015584 C135.339706,25.2015584 135.076737,25.1335065 134.866258,24.9449351 C134.586138,24.6701299 134.445299,24.2249351 134.445299,21.7407792 C134.445299,19.2737662 134.586138,18.8275325 134.866258,18.5537662 C135.076737,18.3480519 135.339706,18.2961039 136.006483,18.2961039 L138.182995,18.2961039 C138.849252,18.2961039 139.112741,18.3480519 139.30607,18.5537662 C139.586709,18.8275325 139.744179,19.2737662 139.744179,21.7407792 C139.744179,24.2249351 139.586709,24.6701299 139.30607,24.9449351 Z M138.322794,17.1651948 L135.866164,17.1651948 C134.901597,17.1651948 134.35695,17.2862338 133.953661,17.68 C133.357563,18.2628571 133.146564,18.9994805 133.146564,21.7407792 C133.146564,24.4992208 133.357563,25.2358442 133.953661,25.8181818 C134.35695,26.2124675 134.901597,26.3324675 135.866164,26.3324675 L138.322794,26.3324675 C139.269691,26.3324675 139.832009,26.2124675 140.218667,25.8181818 C140.831915,25.2358442 141.042914,24.4992208 141.042914,21.7407792 C141.042914,18.9994805 140.831915,18.2628571 140.218667,17.68 C139.832009,17.2862338 139.269691,17.1651948 138.322794,17.1651948 L138.322794,17.1651948 Z" id="Fill-25" fill="#FFFFFE"></path>
                <path d="M148.29951,24.9615584 C148.089031,25.1501299 147.860362,25.2020779 147.281414,25.2020779 L145.228592,25.2020779 C144.561295,25.2020779 144.298846,25.1324675 144.087847,24.9444156 C143.807208,24.6711688 143.666888,24.2249351 143.666888,21.7407792 C143.666888,19.2732468 143.807208,18.8280519 144.087847,18.5532468 C144.298846,18.3480519 144.561295,18.2966234 145.228592,18.2966234 L147.281414,18.2966234 C147.860362,18.2966234 148.070841,18.3480519 148.26417,18.5361039 C148.45698,18.7246753 148.562999,18.9994805 148.614969,20.1636364 L149.878364,20.1636364 C149.843544,18.638961 149.667365,18.0566234 149.229776,17.6280519 C148.878458,17.2857143 148.47413,17.1657143 147.544383,17.1657143 L145.088273,17.1657143 C144.122667,17.1657143 143.578539,17.2857143 143.17577,17.68 C142.579152,18.2628571 142.368153,18.9994805 142.368153,21.7407792 C142.368153,24.4992208 142.579152,25.2363636 143.17577,25.8187013 C143.578539,26.2119481 144.122667,26.3324675 145.088273,26.3324675 L147.562053,26.3324675 C148.45698,26.3324675 148.896128,26.1948052 149.229776,25.8701299 C149.686075,25.4238961 149.860694,24.8924675 149.913704,23.2311688 L148.650309,23.2311688 C148.614969,24.3958442 148.510509,24.7563636 148.29951,24.9615584" id="Fill-26" fill="#FFFFFE"></path>
                <polyline id="Fill-27" fill="#FFFFFE" points="158.643655 17.1657143 157.082471 17.1657143 153.625934 21.1755844 152.660328 21.1755844 152.660328 13.9958442 151.361593 13.9958442 151.361593 26.3324675 152.660328 26.3324675 152.660328 22.2374026 153.590075 22.2374026 157.152111 26.3324675 158.784494 26.3324675 154.64351 21.6379221 158.643655 17.1657143"></polyline>
                <polyline id="Fill-28" fill="#FFFFFE" points="161.799284 16.7574026 161.494219 17.8919481 161.173563 16.7574026 160.673091 16.7574026 160.673091 18.3116883 160.989589 18.3116883 160.989589 17.1231169 161.328954 18.3116883 161.627263 18.3116883 161.971825 17.1231169 161.971825 18.3116883 162.298718 18.3116883 162.298718 16.7574026 161.799284 16.7574026"></polyline>
                <polyline id="Fill-29" fill="#FFFFFE" points="159.187783 17.0124675 159.606662 17.0124675 159.606662 18.3116883 159.939791 18.3116883 159.939791 17.0124675 160.352954 17.0124675 160.352954 16.7574026 159.187783 16.7574026 159.187783 17.0124675"></polyline>
            </g>
        </g>
    </g>
</svg>