<?xml version="1.0" encoding="UTF-8"?>
<svg width="18px" height="29px" viewBox="0 0 18 29" version="1.1" xmlns="http://www.w3.org/2000/svg" xmlns:xlink="http://www.w3.org/1999/xlink">
    <!-- Generator: Sketch 64 (93537) - https://sketch.com -->
    <title>norton-vert-cmyk-on-sy-myellow Copy</title>
    <desc>Created with Sketch.</desc>
    <g id="norton-vert-cmyk-on-sy-myellow-Copy" stroke="none" stroke-width="1" fill="none" fill-rule="evenodd">
        <g id="Group-2" transform="translate(-4.000000, 0.000000)" fill="#FFFFFF" fill-rule="nonzero">
            <g id="norton-vert-cmyk-on-sy-myellow" transform="translate(4.000000, 5.000000)">
                <g id="Group" transform="translate(0.000000, 2.425000)">
                    <g id="Clipped">
                        <path d="M8.213,2.67895709 C6.72933995,2.67321792 5.303092,3.25198 4.243,4.29 C3.19084295,5.31062726 2.59732209,6.71415075 2.59799942,8.18 C2.59799942,9.649 3.182,11.03 4.243,12.07 C5.30299096,13.108294 6.72921903,13.6874072 8.213,13.6820375 C9.712,13.6820375 11.123,13.109 12.183,12.07 C13.2345664,11.0489713 13.8279662,9.64570513 13.8279662,8.18 C13.8279662,6.71429487 13.2345664,5.31102873 12.183,4.29 C11.122908,3.25198 9.69666005,2.67321792 8.213,2.67895709 L8.213,2.67895709 Z M8.213,16.229 C3.685,16.228 0,12.616 0,8.18 C0,3.743 3.685,0.133 8.213,0.133 C12.741,0.133 16.425,3.743 16.425,8.18 C16.425,12.617 12.741,16.228 8.213,16.228 L8.213,16.229 Z" id="Shape"></path>
                    </g>
                </g>
                <path d="M17.16,1.946 L17.8,1.946 L17.8,1.32 L17.16,1.32 L17.16,1.946 Z M17.16,0.697 L17.8,0.697 L17.8,0.068 L17.16,0.068 L17.16,0.697 Z M15.358,2.554 L15.956,2.554 L15.956,1.942 L15.358,1.942 L15.358,2.554 Z M14.172,3.73 L14.775,3.73 L14.775,3.145 L14.172,3.145 L14.172,3.73 Z M15.956,3.145 L16.626,3.145 L16.626,2.555 L15.956,2.555 L15.956,3.145 Z M13.572,3.145 L14.172,3.145 L14.172,2.583 L13.572,2.583 L13.572,3.145 Z M15.358,3.73 L15.956,3.73 L15.956,3.145 L15.358,3.145 L15.358,3.73 Z M16.526,1.319 L17.159,1.319 L17.159,0.697 L16.526,0.697 L16.526,1.319 Z" id="Shape"></path>
                <path d="M15.358,1.942 L16.526,1.942 L16.526,1.319 L15.358,1.319 L15.358,1.942 Z M14.775,3.145 L15.358,3.145 L15.358,1.942 L14.775,1.942 L14.775,3.145 Z M14.775,4.321 L14.172,4.321 L14.172,3.731 L13.172,3.731 L13.172,4.156 L12.636,4.156 L12.636,4.681 L13.234,4.681 L13.234,5.266 L12.636,5.266 L12.636,4.68 L11.999,4.68 L11.999,5.597 L11.397,5.597 L11.397,6.183 L10.997,6.183 L10.997,6.77 L10.559,6.77 C10.065,7.49 8.829,9.73 8.455,10.643 C7.108,8.806 6.062,8.077 5.238,7.814 C4.794,7.683 4.258,8.157 4.997,8.903 C6.691,10.73 7.225,12.243 7.74,13.449 C8.013,14.085 9.235,14.184 9.48,13.536 C10.002,12.166 10.759,10.628 11.655,9.365 L11.655,8.71 L12.132,8.71 L12.132,8.12 L12.636,8.12 L12.636,7.436 L13.236,7.436 L13.236,6.776 L12.629,6.776 L12.629,6.176 L13.236,6.176 L13.236,6.776 L13.831,6.776 L13.829,6.183 L14.305,6.183 L14.305,5.466 L14.842,5.466 L14.842,4.974 L15.358,4.974 L15.358,3.73 L14.775,3.73 L14.775,4.32 L14.775,4.321 Z" id="Shape"></path>
            </g>
        </g>
    </g>
</svg>